<svg preserveAspectRatio="none" width="100%" height="100%" overflow="visible" style="display: block;" viewBox="0 0 36 36" fill="none" xmlns="http://www.w3.org/2000/svg">
<path id="Subtract" d="M18.0706 0C27.2857 0 34.8884 6.87088 36 15.75H23.5224L27.6529 11.6356L24.4588 8.45398L20.3294 12.5673V6.75H15.8118V12.5662L11.6824 8.45398L8.48824 11.6356L12.6188 15.75H6.77647V20.25H12.6165L8.48603 24.3644L11.6813 27.546L15.8118 23.4305V29.25H20.3294V23.4305L24.461 27.546L27.6551 24.3633L23.5257 20.25H36C34.8884 29.1291 27.2857 36 18.0706 36C8.09048 36 0 27.9411 0 18C0 8.05887 8.09048 0 18.0706 0Z" fill="var(--fill-0, #F97316)"/>
</svg>
